<svg xmlns="http://www.w3.org/2000/svg" width="16" height="16" viewBox="0 0 16 16" fill="none">
  <path d="M1.66664 14.3333L5.36615 12.9104C5.60278 12.8194 5.72109 12.7739 5.83179 12.7145C5.93011 12.6617 6.02384 12.6008 6.112 12.5324C6.21126 12.4554 6.30089 12.3657 6.48016 12.1865L14 4.66665C14.7364 3.93027 14.7364 2.73636 14 1.99998C13.2636 1.2636 12.0697 1.2636 11.3333 1.99998L3.8135 9.51979C3.63423 9.69906 3.54459 9.7887 3.46757 9.88795C3.39916 9.97611 3.33824 10.0698 3.28546 10.1682C3.22605 10.2789 3.18054 10.3972 3.08953 10.6338L1.66664 14.3333ZM1.66664 14.3333L3.03872 10.766C3.13691 10.5107 3.186 10.383 3.2702 10.3246C3.34379 10.2735 3.43484 10.2542 3.52284 10.271C3.62353 10.2902 3.72023 10.3869 3.91363 10.5803L5.41969 12.0863C5.61309 12.2797 5.70979 12.3764 5.72902 12.4771C5.74582 12.5651 5.7265 12.6562 5.67541 12.7298C5.61694 12.814 5.4893 12.8631 5.23402 12.9613L1.66664 14.3333Z"  stroke-width="1.3" stroke-linecap="round" stroke-linejoin="round"/>
</svg>