<!-- Generated by IcoMoon.io -->
<svg version="1.1" xmlns="http://www.w3.org/2000/svg" width="32" height="32" viewBox="0 0 32 32">
<title>pencil</title>
<path fill="none" stroke="#000" stroke-width="1.8087" stroke-miterlimit="4" stroke-linecap="round" stroke-linejoin="round" d="M6.493 19.942l5.147-1.98c0.329-0.127 0.494-0.19 0.648-0.273 0.137-0.073 0.267-0.158 0.39-0.253 0.138-0.107 0.263-0.232 0.512-0.481l10.462-10.462c1.025-1.025 1.025-2.686 0-3.71s-2.686-1.025-3.71 0l-10.462 10.462c-0.249 0.249-0.374 0.374-0.481 0.512-0.095 0.123-0.18 0.253-0.253 0.39-0.083 0.154-0.146 0.319-0.273 0.648l-1.98 5.147zM6.493 19.942l1.909-4.963c0.137-0.355 0.205-0.533 0.322-0.614 0.102-0.071 0.229-0.098 0.351-0.075 0.14 0.027 0.275 0.161 0.544 0.43l2.095 2.095c0.269 0.269 0.404 0.404 0.43 0.544 0.023 0.122-0.004 0.249-0.075 0.352-0.081 0.117-0.259 0.185-0.614 0.322l-4.963 1.909z"></path>
</svg>
